<svg width="178" height="27" viewBox="0 0 178 27" fill="none" xmlns="http://www.w3.org/2000/svg">
<g clip-path="url(#clip0_1126_332)">
<path d="M12 1.5C9.62663 1.5 7.30655 2.20379 5.33316 3.52236C3.35977 4.84094 1.8217 6.71509 0.913451 8.9078C0.00519943 11.1005 -0.232441 13.5133 0.230582 15.8411C0.693605 18.1689 1.83649 20.3071 3.51472 21.9853C5.19295 23.6635 7.33115 24.8064 9.65892 25.2694C11.9867 25.7324 14.3995 25.4948 16.5922 24.5866C18.7849 23.6783 20.6591 22.1402 21.9776 20.1668C23.2962 18.1935 24 15.8734 24 13.5C24 10.3174 22.7357 7.26515 20.4853 5.01472C18.2348 2.76428 15.1826 1.5 12 1.5V1.5ZM18.82 10.605L11.29 19.145C11.1685 19.2819 11.0211 19.3935 10.8564 19.4733C10.6916 19.5531 10.5128 19.5995 10.33 19.61H10.24C9.89893 19.6121 9.56926 19.4874 9.31501 19.26L5.28501 15.685C5.00785 15.439 4.83977 15.093 4.81774 14.7231C4.7957 14.3532 4.92152 13.9897 5.16751 13.7125C5.41349 13.4353 5.7595 13.2673 6.12942 13.2452C6.49934 13.2232 6.86285 13.349 7.14001 13.595L10.14 16.24L16.745 8.74C16.9903 8.46219 17.336 8.2932 17.7059 8.27023C18.0758 8.24726 18.4397 8.37217 18.7175 8.6175C18.9953 8.86282 19.1643 9.20846 19.1873 9.57838C19.2102 9.9483 19.0853 10.3122 18.84 10.59L18.82 10.605Z" fill="#F0B70D"/>
</g>
<path d="M34.684 8.48V6.986H38.068V20H36.412V8.48H34.684ZM40.8816 13.358C40.8816 11.294 41.2176 9.686 41.8896 8.534C42.5616 7.37 43.7376 6.788 45.4176 6.788C47.0856 6.788 48.2556 7.37 48.9276 8.534C49.5996 9.686 49.9356 11.294 49.9356 13.358C49.9356 15.458 49.5996 17.09 48.9276 18.254C48.2556 19.418 47.0856 20 45.4176 20C43.7376 20 42.5616 19.418 41.8896 18.254C41.2176 17.09 40.8816 15.458 40.8816 13.358ZM48.3156 13.358C48.3156 12.314 48.2436 11.432 48.0996 10.712C47.9676 9.98 47.6856 9.392 47.2536 8.948C46.8336 8.504 46.2216 8.282 45.4176 8.282C44.6016 8.282 43.9776 8.504 43.5456 8.948C43.1256 9.392 42.8436 9.98 42.6996 10.712C42.5676 11.432 42.5016 12.314 42.5016 13.358C42.5016 14.438 42.5676 15.344 42.6996 16.076C42.8436 16.808 43.1256 17.396 43.5456 17.84C43.9776 18.284 44.6016 18.506 45.4176 18.506C46.2216 18.506 46.8336 18.284 47.2536 17.84C47.6856 17.396 47.9676 16.808 48.0996 16.076C48.2436 15.344 48.3156 14.438 48.3156 13.358ZM52.1844 13.358C52.1844 11.294 52.5204 9.686 53.1924 8.534C53.8644 7.37 55.0404 6.788 56.7204 6.788C58.3884 6.788 59.5584 7.37 60.2304 8.534C60.9024 9.686 61.2384 11.294 61.2384 13.358C61.2384 15.458 60.9024 17.09 60.2304 18.254C59.5584 19.418 58.3884 20 56.7204 20C55.0404 20 53.8644 19.418 53.1924 18.254C52.5204 17.09 52.1844 15.458 52.1844 13.358ZM59.6184 13.358C59.6184 12.314 59.5464 11.432 59.4024 10.712C59.2704 9.98 58.9884 9.392 58.5564 8.948C58.1364 8.504 57.5244 8.282 56.7204 8.282C55.9044 8.282 55.2804 8.504 54.8484 8.948C54.4284 9.392 54.1464 9.98 54.0024 10.712C53.8704 11.432 53.8044 12.314 53.8044 13.358C53.8044 14.438 53.8704 15.344 54.0024 16.076C54.1464 16.808 54.4284 17.396 54.8484 17.84C55.2804 18.284 55.9044 18.506 56.7204 18.506C57.5244 18.506 58.1364 18.284 58.5564 17.84C58.9884 17.396 59.2704 16.808 59.4024 16.076C59.5464 15.344 59.6184 14.438 59.6184 13.358ZM63.1271 9.92C63.1271 9.104 63.3731 8.456 63.8651 7.976C64.3571 7.484 64.9871 7.238 65.7551 7.238C66.5231 7.238 67.1531 7.484 67.6451 7.976C68.1371 8.456 68.3831 9.104 68.3831 9.92C68.3831 10.748 68.1371 11.408 67.6451 11.9C67.1531 12.38 66.5231 12.62 65.7551 12.62C64.9871 12.62 64.3571 12.38 63.8651 11.9C63.3731 11.408 63.1271 10.748 63.1271 9.92ZM73.6391 7.436L66.3491 20H64.7291L72.0191 7.436H73.6391ZM65.7551 8.246C65.3471 8.246 65.0231 8.39 64.7831 8.678C64.5551 8.954 64.4411 9.368 64.4411 9.92C64.4411 10.472 64.5551 10.892 64.7831 11.18C65.0231 11.468 65.3471 11.612 65.7551 11.612C66.1631 11.612 66.4871 11.468 66.7271 11.18C66.9671 10.88 67.0871 10.46 67.0871 9.92C67.0871 9.368 66.9671 8.954 66.7271 8.678C66.4871 8.39 66.1631 8.246 65.7551 8.246ZM70.0211 17.516C70.0211 16.688 70.2671 16.034 70.7591 15.554C71.2511 15.062 71.8811 14.816 72.6491 14.816C73.4171 14.816 74.0411 15.062 74.5211 15.554C75.0131 16.034 75.2591 16.688 75.2591 17.516C75.2591 18.332 75.0131 18.986 74.5211 19.478C74.0411 19.97 73.4171 20.216 72.6491 20.216C71.8811 20.216 71.2511 19.976 70.7591 19.496C70.2671 19.004 70.0211 18.344 70.0211 17.516ZM72.6311 15.842C72.2231 15.842 71.8991 15.986 71.6591 16.274C71.4191 16.55 71.2991 16.964 71.2991 17.516C71.2991 18.056 71.4191 18.47 71.6591 18.758C71.8991 19.034 72.2231 19.172 72.6311 19.172C73.0391 19.172 73.3631 19.034 73.6031 18.758C73.8431 18.47 73.9631 18.056 73.9631 17.516C73.9631 16.964 73.8431 16.55 73.6031 16.274C73.3631 15.986 73.0391 15.842 72.6311 15.842ZM91.7181 11.09C91.3701 10.358 90.8661 9.794 90.2061 9.398C89.5461 8.99 88.7781 8.786 87.9021 8.786C87.0261 8.786 86.2341 8.99 85.5261 9.398C84.8301 9.794 84.2781 10.37 83.8701 11.126C83.4741 11.87 83.2761 12.734 83.2761 13.718C83.2761 14.702 83.4741 15.566 83.8701 16.31C84.2781 17.054 84.8301 17.63 85.5261 18.038C86.2341 18.434 87.0261 18.632 87.9021 18.632C89.1261 18.632 90.1341 18.266 90.9261 17.534C91.7181 16.802 92.1801 15.812 92.3121 14.564H87.3081V13.232H94.0581V14.492C93.9621 15.524 93.6381 16.472 93.0861 17.336C92.5341 18.188 91.8081 18.866 90.9081 19.37C90.0081 19.862 89.0061 20.108 87.9021 20.108C86.7381 20.108 85.6761 19.838 84.7161 19.298C83.7561 18.746 82.9941 17.984 82.4301 17.012C81.8781 16.04 81.6021 14.942 81.6021 13.718C81.6021 12.494 81.8781 11.396 82.4301 10.424C82.9941 9.44 83.7561 8.678 84.7161 8.138C85.6761 7.586 86.7381 7.31 87.9021 7.31C89.2341 7.31 90.4101 7.64 91.4301 8.3C92.4621 8.96 93.2121 9.89 93.6801 11.09H91.7181ZM104.972 10.136V20H103.334V18.542C103.022 19.046 102.584 19.442 102.02 19.73C101.468 20.006 100.856 20.144 100.184 20.144C99.4159 20.144 98.7259 19.988 98.1139 19.676C97.5019 19.352 97.0159 18.872 96.6559 18.236C96.3079 17.6 96.1339 16.826 96.1339 15.914V10.136H97.7539V15.698C97.7539 16.67 97.9999 17.42 98.4919 17.948C98.9839 18.464 99.6559 18.722 100.508 18.722C101.384 18.722 102.074 18.452 102.578 17.912C103.082 17.372 103.334 16.586 103.334 15.554V10.136H104.972ZM107.126 15.032C107.126 14.024 107.33 13.142 107.738 12.386C108.146 11.618 108.704 11.024 109.412 10.604C110.132 10.184 110.93 9.974 111.806 9.974C112.67 9.974 113.42 10.16 114.056 10.532C114.692 10.904 115.166 11.372 115.478 11.936V10.136H117.134V20H115.478V18.164C115.154 18.74 114.668 19.22 114.02 19.604C113.384 19.976 112.64 20.162 111.788 20.162C110.912 20.162 110.12 19.946 109.412 19.514C108.704 19.082 108.146 18.476 107.738 17.696C107.33 16.916 107.126 16.028 107.126 15.032ZM115.478 15.05C115.478 14.306 115.328 13.658 115.028 13.106C114.728 12.554 114.32 12.134 113.804 11.846C113.3 11.546 112.742 11.396 112.13 11.396C111.518 11.396 110.96 11.54 110.456 11.828C109.952 12.116 109.55 12.536 109.25 13.088C108.95 13.64 108.8 14.288 108.8 15.032C108.8 15.788 108.95 16.448 109.25 17.012C109.55 17.564 109.952 17.99 110.456 18.29C110.96 18.578 111.518 18.722 112.13 18.722C112.742 18.722 113.3 18.578 113.804 18.29C114.32 17.99 114.728 17.564 115.028 17.012C115.328 16.448 115.478 15.794 115.478 15.05ZM121.54 11.738C121.828 11.174 122.236 10.736 122.764 10.424C123.304 10.112 123.958 9.956 124.726 9.956V11.648H124.294C122.458 11.648 121.54 12.644 121.54 14.636V20H119.902V10.136H121.54V11.738ZM126.004 15.032C126.004 14.024 126.208 13.142 126.616 12.386C127.024 11.618 127.582 11.024 128.29 10.604C129.01 10.184 129.808 9.974 130.684 9.974C131.548 9.974 132.298 10.16 132.934 10.532C133.57 10.904 134.044 11.372 134.356 11.936V10.136H136.012V20H134.356V18.164C134.032 18.74 133.546 19.22 132.898 19.604C132.262 19.976 131.518 20.162 130.666 20.162C129.79 20.162 128.998 19.946 128.29 19.514C127.582 19.082 127.024 18.476 126.616 17.696C126.208 16.916 126.004 16.028 126.004 15.032ZM134.356 15.05C134.356 14.306 134.206 13.658 133.906 13.106C133.606 12.554 133.198 12.134 132.682 11.846C132.178 11.546 131.62 11.396 131.008 11.396C130.396 11.396 129.838 11.54 129.334 11.828C128.83 12.116 128.428 12.536 128.128 13.088C127.828 13.64 127.678 14.288 127.678 15.032C127.678 15.788 127.828 16.448 128.128 17.012C128.428 17.564 128.83 17.99 129.334 18.29C129.838 18.578 130.396 18.722 131.008 18.722C131.62 18.722 132.178 18.578 132.682 18.29C133.198 17.99 133.606 17.564 133.906 17.012C134.206 16.448 134.356 15.794 134.356 15.05ZM143.587 9.956C144.787 9.956 145.759 10.322 146.503 11.054C147.247 11.774 147.619 12.818 147.619 14.186V20H145.999V14.42C145.999 13.436 145.753 12.686 145.261 12.17C144.769 11.642 144.097 11.378 143.245 11.378C142.381 11.378 141.691 11.648 141.175 12.188C140.671 12.728 140.419 13.514 140.419 14.546V20H138.781V10.136H140.419V11.54C140.743 11.036 141.181 10.646 141.733 10.37C142.297 10.094 142.915 9.956 143.587 9.956ZM152.292 11.486V17.3C152.292 17.78 152.394 18.122 152.598 18.326C152.802 18.518 153.156 18.614 153.66 18.614H154.866V20H153.39C152.478 20 151.794 19.79 151.338 19.37C150.882 18.95 150.654 18.26 150.654 17.3V11.486H149.376V10.136H150.654V7.652H152.292V10.136H154.866V11.486H152.292ZM165.851 14.69C165.851 15.002 165.833 15.332 165.797 15.68H157.913C157.973 16.652 158.303 17.414 158.903 17.966C159.515 18.506 160.253 18.776 161.117 18.776C161.825 18.776 162.413 18.614 162.881 18.29C163.361 17.954 163.697 17.51 163.889 16.958H165.653C165.389 17.906 164.861 18.68 164.069 19.28C163.277 19.868 162.293 20.162 161.117 20.162C160.181 20.162 159.341 19.952 158.597 19.532C157.865 19.112 157.289 18.518 156.869 17.75C156.449 16.97 156.239 16.07 156.239 15.05C156.239 14.03 156.443 13.136 156.851 12.368C157.259 11.6 157.829 11.012 158.561 10.604C159.305 10.184 160.157 9.974 161.117 9.974C162.053 9.974 162.881 10.178 163.601 10.586C164.321 10.994 164.873 11.558 165.257 12.278C165.653 12.986 165.851 13.79 165.851 14.69ZM164.159 14.348C164.159 13.724 164.021 13.19 163.745 12.746C163.469 12.29 163.091 11.948 162.611 11.72C162.143 11.48 161.621 11.36 161.045 11.36C160.217 11.36 159.509 11.624 158.921 12.152C158.345 12.68 158.015 13.412 157.931 14.348H164.159ZM177.013 14.69C177.013 15.002 176.995 15.332 176.959 15.68H169.075C169.135 16.652 169.465 17.414 170.065 17.966C170.677 18.506 171.415 18.776 172.279 18.776C172.987 18.776 173.575 18.614 174.043 18.29C174.523 17.954 174.859 17.51 175.051 16.958H176.815C176.551 17.906 176.023 18.68 175.231 19.28C174.439 19.868 173.455 20.162 172.279 20.162C171.343 20.162 170.503 19.952 169.759 19.532C169.027 19.112 168.451 18.518 168.031 17.75C167.611 16.97 167.401 16.07 167.401 15.05C167.401 14.03 167.605 13.136 168.013 12.368C168.421 11.6 168.991 11.012 169.723 10.604C170.467 10.184 171.319 9.974 172.279 9.974C173.215 9.974 174.043 10.178 174.763 10.586C175.483 10.994 176.035 11.558 176.419 12.278C176.815 12.986 177.013 13.79 177.013 14.69ZM175.321 14.348C175.321 13.724 175.183 13.19 174.907 12.746C174.631 12.29 174.253 11.948 173.773 11.72C173.305 11.48 172.783 11.36 172.207 11.36C171.379 11.36 170.671 11.624 170.083 12.152C169.507 12.68 169.177 13.412 169.093 14.348H175.321Z" fill="#949494"/>
<defs>
<clipPath id="clip0_1126_332">
<rect width="24" height="24" fill="white" transform="translate(0 1.5)"/>
</clipPath>
</defs>
</svg>
