<svg width="37" height="50" viewBox="0 0 37 50" fill="none" xmlns="http://www.w3.org/2000/svg">
<path d="M27.1574 7.83765C27.1261 7.96907 27.0948 8.09437 27.0634 8.23205C27.0634 8.09439 27.0947 7.96907 27.1574 7.83765Z" fill="white"/>
<path d="M2.3798 41.5932L0.96637 44.427C6.04003 47.7289 12.3317 49.6833 19.1463 49.6833C25.6295 49.6833 31.6394 47.9144 36.5774 44.8992L35.0835 41.8503L2.3798 41.5932Z" fill="#FF8D29"/>
<path d="M23.5664 12.3522L19.1113 0.94046L6.59998 31.3547L6.59631 31.4575C7.25161 31.8859 7.68386 32.6211 7.68386 33.456C7.68386 34.7783 6.59977 35.8502 5.26247 35.8502C5.09531 35.8502 4.93209 35.8334 4.77448 35.8015L4.75211 35.8468L2.30298 41.8004C6.99385 44.7469 12.8109 46.491 19.1113 46.491C25.1053 46.491 30.6618 44.9125 35.2273 42.2218L31.6014 32.9341L31.5401 32.9391C31.1539 33.1006 30.7292 33.19 30.2835 33.19C28.5004 33.19 27.0549 31.7608 27.0549 29.9977C27.0549 28.5938 27.9715 27.4015 29.2453 26.9741L29.2551 26.9241L25.3335 16.8789L25.2844 16.9207C24.9332 17.1168 24.5276 17.2287 24.0954 17.2287C22.7581 17.2287 21.674 16.1568 21.674 14.8345C21.674 13.6954 22.4786 12.7421 23.5565 12.4999L23.5664 12.3522Z" fill="#FFAD31"/>
<path d="M35.2256 42.2199C33.7985 43.0648 32.2713 43.7972 30.6689 44.4043L17.2365 5.49675L19.1143 0.940002L23.5647 12.3506L23.5584 12.501C22.4819 12.745 21.6744 13.6964 21.6744 14.8356C21.6744 16.1563 22.7572 17.2266 24.0967 17.2266C24.5287 17.2266 24.9355 17.1139 25.286 16.9199L25.336 16.876L29.2543 26.9223L29.248 26.9723C27.9713 27.4041 27.0573 28.5935 27.0573 29.9955C27.0573 31.7607 28.5032 33.1877 30.2809 33.1877C30.7315 33.1877 31.1509 33.1001 31.539 32.9374L31.6015 32.9311L35.2256 42.2199Z" fill="#FF8D29"/>
<path d="M10.4746 28.4515C10.3555 28.4515 10.2345 28.4287 10.1178 28.3806C9.63824 28.1833 9.40932 27.6347 9.6066 27.1551L11.4807 22.5993C11.6778 22.1196 12.2272 21.8901 12.7061 22.0881C13.1856 22.2854 13.4146 22.834 13.2173 23.3136L11.3432 27.8694C11.194 28.2322 10.8438 28.4515 10.4746 28.4515Z" fill="#FFE8C4"/>
<path d="M17.0206 19.0561C17.9054 19.0561 18.6227 18.3468 18.6227 17.4719C18.6227 16.597 17.9054 15.8878 17.0206 15.8878C16.1357 15.8878 15.4184 16.597 15.4184 17.4719C15.4184 18.3468 16.1357 19.0561 17.0206 19.0561Z" fill="white"/>
<path d="M19.9579 26.4488C20.9903 26.4488 21.8271 25.6213 21.8271 24.6006C21.8271 23.5799 20.9903 22.7524 19.9579 22.7524C18.9256 22.7524 18.0887 23.5799 18.0887 24.6006C18.0887 25.6213 18.9256 26.4488 19.9579 26.4488Z" fill="white"/>
<path d="M15.6854 34.3697C17.0127 34.3697 18.0886 33.3058 18.0886 31.9934C18.0886 30.681 17.0127 29.6172 15.6854 29.6172C14.3581 29.6172 13.2822 30.681 13.2822 31.9934C13.2822 33.3058 14.3581 34.3697 15.6854 34.3697Z" fill="white"/>
<path d="M23.6962 41.2345C24.7285 41.2345 25.5653 40.407 25.5653 39.3863C25.5653 38.3655 24.7285 37.5381 23.6962 37.5381C22.6639 37.5381 21.827 38.3655 21.827 39.3863C21.827 40.407 22.6639 41.2345 23.6962 41.2345Z" fill="white"/>
</svg>
