<svg width="64" height="32" viewBox="0 0 64 32" fill="none" xmlns="http://www.w3.org/2000/svg">
<path d="M42.9827 15.4927C48.8947 11.3712 50.1961 14.1258 50.1961 14.1258L49.7565 14.5134C55.5236 11.4563 54.1362 15.2554 54.1362 15.2554L54.1245 15.2074C54.1245 15.2074 61.3785 13.6004 63.0416 17.0227C64.7046 20.445 57.4917 20.2386 53.3144 17.9858L54.3393 18.5633C54.503 19.3406 54.6753 21.6833 49.8781 18.9292L50.3042 19.3314C50.3042 19.3314 48.9091 22.0407 43.1419 17.7233L42.9827 15.4927Z" fill="#89CF6E"/>
<path d="M54.1382 15.2567L54.1252 15.2049C54.1252 15.2049 54.1382 15.2049 54.1576 15.1984C54.1447 15.2373 54.1382 15.2567 54.1382 15.2567ZM53.3155 17.9838L54.339 18.5603C54.501 19.3377 54.6759 21.6825 49.8757 18.9295L50.3032 19.3312C50.3032 19.3312 48.9103 22.0388 43.1448 17.7247L43.093 17.051C46.183 17.5886 49.7719 17.7959 53.5876 17.5757C56.8008 17.3879 59.826 16.9279 62.495 16.2543C62.7152 16.4745 62.8966 16.7336 63.0391 17.0251C64.704 20.4453 57.4938 20.238 53.3155 17.9838Z" fill="#6DBF4D"/>
<path d="M41.4177 13.923C44.0927 5.86323 47.2636 7.54643 47.2636 7.54643L47.122 8.22241C50.4107 1.26968 51.7799 5.83493 51.7799 5.83493L51.7351 5.79782C51.7351 5.79782 57.45 -0.834104 61.4332 1.22451C65.4165 3.28312 58.4616 8.17393 52.9294 8.9923L54.3042 8.81484C55.0069 9.43334 56.8215 11.5237 50.3506 12.3058L51.0364 12.3852C51.0364 12.3852 51.6298 15.9269 43.1409 15.9168L41.4177 13.923Z" fill="#89CF6E"/>
<path d="M50.8085 6.09684L50.7631 6.05801C50.7631 6.05801 50.7696 6.05152 50.789 6.03207C50.802 6.07097 50.8085 6.09684 50.8085 6.09684ZM52.9268 8.99281L54.3066 8.81787C55.0063 9.4333 56.82 11.526 50.3485 12.3099L51.0351 12.3876C51.0351 12.3876 51.6312 15.925 43.1383 15.9185L41.4152 13.9231C41.5252 13.5863 47.1507 11.3512 49.865 9.78323C54.1988 7.28253 57.7594 3.81634 60.3637 0.875C60.7265 0.933372 61.0891 1.04345 61.4325 1.22486C65.4165 3.28504 58.4592 8.17648 52.9268 8.99281Z" fill="#6DBF4D"/>
<path d="M43.1753 15.4941C44.5287 19.2199 41.4215 22.9703 36.8964 24.577C27.4206 27.9416 11.6987 29.9894 3.32018 31.7025C-0.267846 32.4361 -1.10901 30.0079 2.07949 28.2363C11.2967 23.1148 22.3113 16.0438 32.5252 12.4171C37.0338 10.8162 41.8269 11.782 43.1753 15.4941Z" fill="#FFAD31"/>
<path d="M36.8937 24.5786C27.4224 27.9407 11.6996 29.9878 3.32328 31.7045C0.686584 32.2422 -0.466567 31.0762 0.369151 29.7157C8.8298 28.0119 24.2674 25.9713 33.6222 22.6546C38.1505 21.048 41.2536 17.2972 39.8996 13.5723C39.6729 12.9503 39.349 12.4062 38.9473 11.9398C40.9167 12.4321 42.4909 13.6046 43.1776 15.4963C44.525 19.2212 41.4221 22.972 36.8937 24.5786Z" fill="#FF8D29"/>
<path d="M25.5124 26.1492C25.1885 26.1492 24.8718 25.9873 24.6874 25.6924C24.0369 24.6516 23.5047 23.5102 23.106 22.2999C22.938 21.7901 23.215 21.2408 23.7247 21.0728C24.2341 20.9052 24.7839 21.1819 24.9517 21.6916C25.3019 22.754 25.7674 23.7535 26.3355 24.6623C26.62 25.1174 26.4816 25.7169 26.0266 26.0013C25.8663 26.1014 25.6883 26.1492 25.5124 26.1492ZM36.1996 22.9867C35.8757 22.9867 35.5591 22.8249 35.3747 22.5299C34.724 21.489 34.1918 20.3475 33.7931 19.1374C33.6251 18.6276 33.902 18.0783 34.4118 17.9103C34.9214 17.7427 35.471 18.0194 35.6388 18.5291C35.989 19.5914 36.4544 20.5908 37.0227 21.4998C37.3071 21.9548 37.1688 22.5543 36.7138 22.8389C36.5536 22.939 36.3755 22.9867 36.1996 22.9867ZM29.7396 21.7012C29.3532 21.7012 28.9877 21.4692 28.8363 21.0883C28.3652 19.9036 28.0412 18.688 27.8734 17.4752C27.7999 16.9436 28.1712 16.453 28.7028 16.3794C29.2311 16.3055 29.7249 16.677 29.7986 17.2087C29.945 18.2669 30.2289 19.3306 30.6422 20.3702C30.8405 20.8689 30.597 21.4339 30.0983 21.6323C29.9804 21.6791 29.859 21.7012 29.7396 21.7012ZM18.3093 25.8575C17.9229 25.8575 17.5575 25.6255 17.406 25.2446C17.0079 24.2439 16.7341 23.2167 16.5923 22.1916C16.5187 21.66 16.8899 21.1694 17.4215 21.0958C17.9529 21.0223 18.4437 21.3934 18.5174 21.9251C18.6379 22.7955 18.8715 23.6707 19.2119 24.5264C19.4102 25.0251 19.1668 25.5901 18.6681 25.7885C18.5503 25.8353 18.4287 25.8575 18.3093 25.8575Z" fill="#FFE8C4"/>
<path d="M50.8085 6.09637L50.7631 6.05755C50.7631 6.05755 50.7696 6.05107 50.789 6.03162C50.802 6.07052 50.8085 6.09637 50.8085 6.09637ZM54.1577 15.1983C54.1448 15.2372 54.1383 15.2567 54.1383 15.2567L54.1253 15.2048C54.1253 15.2048 54.1382 15.2048 54.1577 15.1983Z" fill="#6DBF4D"/>
</svg>
